<svg xmlns="http://www.w3.org/2000/svg" data-name="Layer 1" width="512" viewBox="0 0 512 512" height="512"><path fill="#ffe300" d="m368.13 264.872c0 2.815-.1 5.6-.284 8.375h-67.819a5 5 0 0 0 -4.875 3.89 54.687 54.687 0 0 1 -6.2 15.628 5 5 0 0 0 .773 6.073l48.133 48.121a127.964 127.964 0 0 1 -13.007 13.192l-47.912-47.922a5 5 0 0 0 -6.206-.692 54.581 54.581 0 0 1 -15.425 6.693 5 5 0 0 0 -3.743 4.839v68.107q-5.023.4-10.149.407c-2.815 0-5.606-.1-8.375-.284v-67.819a5 5 0 0 0 -3.89-4.875 54.672 54.672 0 0 1 -15.628-6.2 5 5 0 0 0 -6.073.774l-48.122 48.132a127.652 127.652 0 0 1 -13.191-13.007l47.925-47.904a5 5 0 0 0 .693-6.206 54.531 54.531 0 0 1 -6.693-15.424 5 5 0 0 0 -4.839-3.744h-68.107q-.4-5.023-.407-10.149c0-2.815.1-5.606.284-8.375h67.819a5 5 0 0 0 4.875-3.89 54.687 54.687 0 0 1 6.2-15.628 5 5 0 0 0 -.773-6.073l-48.132-48.122a127.652 127.652 0 0 1 13.007-13.191l47.911 47.902a5 5 0 0 0 6.2.7 54.8 54.8 0 0 1 15.432-6.685 5 5 0 0 0 3.743-4.84v-68.106q5.023-.4 10.15-.408c2.814 0 5.605.1 8.375.284v67.819a5 5 0 0 0 3.889 4.875 54.7 54.7 0 0 1 15.628 6.2 5 5 0 0 0 6.073-.774l48.122-48.132a127.964 127.964 0 0 1 13.188 13.004l-47.912 47.912a5 5 0 0 0 -.7 6.2 54.821 54.821 0 0 1 6.686 15.431 5 5 0 0 0 4.839 3.743h68.107q.404 5.023.41 10.149zm-18.746-144.136a14.106 14.106 0 0 0 -.5-20.425c-5.478-4.986-14.375-4.6-19.833.857l-5.251 5.252a11.418 11.418 0 0 1 -16.151 0l-12.1-12.1-20.991 20.991a4.016 4.016 0 0 0 -1 1.652 142.318 142.318 0 0 1 117.42 120.489l5.557 5.556a4.047 4.047 0 0 0 5.719 0l20.991-20.991-11.962-11.962a11.42 11.42 0 0 1 0-16.152l5.633-5.634a14.106 14.106 0 0 0 -.5-20.424c-5.478-4.985-14.375-4.6-19.833.857l-5.253 5.251a11.419 11.419 0 0 1 -16.152 0l-31.428-31.431a11.422 11.422 0 0 1 0-16.152zm148.855 50.446-50.706 50.706a7.273 7.273 0 0 1 -10.275 0l-18.9-18.9a1.421 1.421 0 0 1 0-2.01l5.633-5.634a24.018 24.018 0 0 0 -16.872-41.067 24.881 24.881 0 0 0 -17.6 7.357l-5.253 5.253a1.42 1.42 0 0 1 -2.009 0l-31.436-31.437a1.421 1.421 0 0 1 0-2.009l5.634-5.634a24.107 24.107 0 0 0 -.839-34.892 24.351 24.351 0 0 0 -33.635 1.185l-5.252 5.252a1.418 1.418 0 0 1 -2.009 0l-18.9-18.9a7.275 7.275 0 0 1 0-10.276l50.706-50.7a7.273 7.273 0 0 1 10.275 0l19.015 19.014a5 5 0 0 0 7.071 0l9.137-9.137a9.125 9.125 0 0 1 12.906 0l83.435 83.433a9.139 9.139 0 0 1 0 12.908l-9.137 9.137a5 5 0 0 0 0 7.071l19.015 19.015a7.273 7.273 0 0 1 -.004 10.265zm-103.809-97.066a11.7 11.7 0 1 0 -11.7 11.7 11.709 11.709 0 0 0 11.7-11.7zm52.957 52.957a11.7 11.7 0 1 0 -11.695 11.7 11.709 11.709 0 0 0 11.695-11.7zm18.866 90.237a231.218 231.218 0 0 1 4.95 47.562c0 126.7-103.079 229.782-229.782 229.783-126.563 0-229.785-103.22-229.785-229.784 0-126.7 103.081-229.783 229.784-229.783a229.72 229.72 0 0 1 65.78 9.561l-18.455 18.451a17.277 17.277 0 0 0 -.257 24.134l-21 21a14.084 14.084 0 0 0 -3.228 14.819 5 5 0 0 0 4.007 3.214 132.283 132.283 0 0 1 113.019 114.155 5 5 0 0 0 1.425 2.9l9.748 10.205a7.132 7.132 0 0 0 9.72.555l1.606-1.337 33.824 33.823a5.153 5.153 0 0 0 6.859.5 5.007 5.007 0 0 0 .371-7.408l-32.576-32.576 18.06-18a17.272 17.272 0 0 0 24.282-.123zm-91.453 153.161a5 5 0 0 0 -10 0v48.7a5 5 0 1 0 10 0zm-118.592-309.018-34.434 34.434a5 5 0 0 0 7.071 7.071l34.434-34.434a5 5 0 1 0 -7.071-7.071zm-115.387 331.8a5.006 5.006 0 0 0 -5-5h-48.7a5 5 0 0 0 0 10h48.7a5.006 5.006 0 0 0 5-4.999zm-102.821-143.169 34.433 34.434a5 5 0 0 0 7.071-7.072l-34.432-34.433a5 5 0 1 0 -7.072 7.071zm75.037-144.508a5.006 5.006 0 0 0 -5 5v48.7a5 5 0 0 0 10 0v-48.7a5.006 5.006 0 0 0 -4.999-5zm149.493 324.745a5 5 0 0 0 -8.537-3.535l-34.433 34.433a5 5 0 0 0 7.071 7.072l34.434-34.434a4.966 4.966 0 0 0 1.465-3.536zm115.6-165.449c0-75.382-61.328-136.711-136.71-136.711a136.056 136.056 0 0 0 -85.745 30.318 5.015 5.015 0 0 0 -.609.408 137.346 137.346 0 0 0 -12 11.035c-3.086 3.2-6.043 6.577-8.791 10.049a4.947 4.947 0 0 0 -.3.466 136.036 136.036 0 0 0 -29.263 84.435c0 75.383 61.328 136.711 136.711 136.711s136.707-61.328 136.707-136.711z"></path></svg>