<svg xmlns="http://www.w3.org/2000/svg" height="512" viewBox="0 0 512 512" width="512"><g fill="#ffe200"><path d="m256 222.8c-18.307 0-33.2 14.894-33.2 33.2 1.824 44.045 64.583 44.032 66.4 0 0-18.307-14.893-33.2-33.2-33.2z"></path><path d="m239.331 384.537c11.018 1.414 22.321 1.414 33.339 0-2.17-37.164-11.453-58.915-16.669-64.452-5.218 5.537-14.5 27.288-16.67 64.452z"></path><path d="m200.452 286.124c-19.672 10.025-40.213 13.771-65.529 16.089 13.154 34.346 40.518 61.71 74.864 74.864 1.509-19.035 4.842-36.574 9.712-50.691 1.987-5.76 4.132-10.667 6.377-14.838-10.726-5.841-19.583-14.698-25.424-25.424z"></path><path d="m272.669 127.463c-11.018-1.414-22.321-1.414-33.339 0 2.17 37.164 11.453 58.915 16.669 64.452 5.218-5.537 14.5-27.288 16.67-64.452z"></path><path d="m127.463 239.331c-1.417 11.011-1.417 22.328 0 33.339 37.165-2.17 58.915-11.453 64.452-16.669-5.537-5.218-27.287-14.5-64.452-16.67z"></path><path d="m200.452 225.876c5.84-10.727 14.697-19.583 25.424-25.424-2.245-4.171-4.39-9.078-6.377-14.838-4.87-14.117-8.203-31.656-9.712-50.691-34.346 13.154-61.71 40.518-74.864 74.864 25.316 2.317 45.859 6.065 65.529 16.089z"></path><path d="m497 208.867c-.433 0-.76-.268-.833-.638-.075-.366.126-.742.475-.886 7.773-3.221 11.313-12.026 8.167-19.622l-24.594-59.375c-3.147-7.596-11.876-11.318-19.65-8.1-.349.144-.756.021-.963-.291-.21-.313-.168-.734.138-1.04 5.858-5.858 5.858-15.355 0-21.213l-45.443-45.443c-5.858-5.858-15.355-5.858-21.213 0-.306.306-.727.348-1.04.138-.312-.206-.435-.614-.291-.962 3.219-7.774-.504-16.503-8.1-19.65l-59.374-24.595c-7.596-3.146-16.401.395-19.622 8.167-.145.349-.52.55-.886.475-.37-.073-.638-.4-.638-.833 0-8.284-6.716-15-15-15h-64.267c-8.284 0-15 6.716-15 15 0 .433-.268.76-.638.833-.366.075-.742-.126-.886-.475-3.221-7.773-12.026-11.313-19.622-8.167l-59.375 24.594c-7.596 3.147-11.318 11.876-8.1 19.65.144.349.021.756-.291.962-.313.21-.734.168-1.04-.138-5.858-5.858-15.355-5.858-21.213 0l-45.442 45.444c-5.858 5.858-5.858 15.355 0 21.213.306.306.348.727.138 1.04-.206.312-.614.435-.963.291-7.774-3.219-16.503.504-19.65 8.1l-24.594 59.375c-3.146 7.596.395 16.401 8.167 19.622.349.145.55.52.475.886-.073.37-.4.638-.833.638-8.284 0-15 6.716-15 15v64.267c0 8.284 6.716 15 15 15 .433 0 .76.268.833.638.075.366-.126.742-.475.886-7.773 3.221-11.313 12.026-8.167 19.622l24.594 59.375c3.147 7.596 11.876 11.318 19.65 8.1.349-.144.756-.021.963.291.21.313.168.734-.138 1.04-5.858 5.858-5.858 15.355 0 21.213l45.443 45.443c5.858 5.858 15.355 5.858 21.213 0 .306-.306.727-.348 1.04-.138.312.206.435.614.291.963-3.219 7.774.504 16.503 8.1 19.65l59.375 24.594c7.596 3.146 16.401-.395 19.622-8.167.145-.349.52-.55.886-.475.37.073.638.4.638.833 0 8.284 6.716 15 15 15h64.267c8.284 0 15-6.716 15-15 0-.433.268-.76.638-.833.366-.075.742.126.886.475 3.221 7.773 12.026 11.313 19.622 8.167l59.375-24.594c7.596-3.147 11.318-11.876 8.1-19.65-.144-.349-.021-.756.291-.963.313-.21.734-.168 1.04.138 5.858 5.858 15.355 5.858 21.213 0l45.443-45.443c5.858-5.858 5.858-15.355 0-21.213-.306-.306-.348-.727-.138-1.04.206-.312.614-.435.963-.291 7.774 3.219 16.503-.504 19.65-8.1l24.594-59.375c3.146-7.596-.395-16.401-8.167-19.622-.349-.145-.55-.52-.475-.886.073-.37.4-.638.833-.638 8.284 0 15-6.716 15-15v-64.267c-.002-8.284-6.718-15-15.002-15zm-241 206.733c-88.004 0-159.6-71.596-159.6-159.6 8.767-211.731 310.466-211.67 319.201.001-.001 88.003-71.597 159.599-159.601 159.599z"></path><path d="m311.548 286.124c-5.84 10.727-14.697 19.583-25.424 25.424 2.245 4.171 4.39 9.078 6.377 14.838 4.87 14.117 8.203 31.656 9.712 50.691 34.346-13.154 61.71-40.518 74.864-74.864-25.316-2.317-45.859-6.065-65.529-16.089z"></path><path d="m302.213 134.923c-1.509 19.035-4.842 36.574-9.712 50.691-1.987 5.76-4.132 10.667-6.377 14.838 10.727 5.84 19.583 14.697 25.424 25.424 19.672-10.025 40.212-13.771 65.529-16.089-13.154-34.346-40.518-61.71-74.864-74.864z"></path><path d="m384.537 272.669c1.417-11.011 1.417-22.328 0-33.339-37.165 2.17-58.915 11.453-64.452 16.669 5.537 5.218 27.287 14.5 64.452 16.67z"></path></g></svg>