<svg xmlns="http://www.w3.org/2000/svg" height="512" viewBox="0 0 512 512" width="512"><g fill="#ffe200"><g><path d="m385.037 54.061v-31.775c0-2.735-2.238-4.973-4.973-4.973-2.785 0-4.973 2.238-4.973 4.973v3.978h-23.968c-90.701 0-101.243 65.141-188.065 65.141h-98.358c-35.107 0-63.7 28.593-63.7 63.699 0 35.157 28.593 63.749 63.7 63.749h36.847c-32.223 23.67-54.301 59.473-60.616 99.005h-17.902c-2.735 0-4.973 2.188-4.973 4.973 0 2.735 2.237 4.973 4.973 4.973h114.569c2.785 0 4.973-2.238 4.973-4.973 0-2.785-2.188-4.973-4.973-4.973h-15.564c10.144-29.537 37.941-49.627 69.617-49.627 40.676 0 73.744 33.118 73.744 73.794 0 40.626-33.068 73.645-73.744 73.645-31.676 0-59.473-20.04-69.617-49.528h15.564c2.785 0 4.973-2.188 4.973-4.973 0-2.735-2.188-4.973-4.973-4.973-137.444 0-71.258 0-114.569 0-2.735 0-4.973 2.238-4.973 4.973 0 2.785 2.237 4.973 4.973 4.973h17.901c11.686 73.595 75.733 128.543 150.72 128.543 84.236 0 152.759-68.473 152.759-152.66 0-20.637-4.028-40.527-12.034-59.323 6.216.746 12.481 1.293 18.747 1.293h23.968v3.928c0 2.785 2.188 4.973 4.973 4.973 2.735 0 4.973-2.188 4.973-4.973v-31.775c28.642-2.486 51.218-26.603 51.218-55.942v-90.203c.001-29.288-22.575-53.406-51.217-55.942zm-50.572 287.965c0 78.667-64.048 142.715-142.814 142.715-69.567 0-129.04-50.572-140.626-118.597h60.567c10.542 35.206 42.963 59.473 80.059 59.473 46.146 0 83.689-37.494 83.689-83.59 0-46.196-37.543-83.739-83.689-83.739-37.145 0-69.517 24.316-80.059 59.572h-60.567c7.061-41.124 32.372-77.772 68.622-99.005h43.411c80.855 0 85.082 47.489 157.533 61.959 9.2 19.243 13.874 39.78 13.874 61.212zm40.626-156.488h-73.446c-16.808 0-30.432-13.675-30.432-30.432s13.625-30.383 30.432-30.383h73.446zm51.218 14.669c0 23.869-18.1 43.511-41.273 45.997v-86.126h14.769c2.785 0 4.973-2.188 4.973-4.973 0-2.735-2.188-4.973-4.973-4.973h-14.769v-86.125c23.172 2.486 41.273 22.178 41.273 45.997z"></path><path d="m477.826 245.756c-1.939 1.939-5.122 1.939-7.061.05l-13.947-13.749c-1.964-1.936-1.986-5.098-.05-7.062 1.936-1.963 5.097-1.986 7.061-.05l13.948 13.75c1.938 1.939 1.988 5.072.049 7.061z"></path><path d="m507.28 181.571-24.125-6.284c-2.632-.67-5.371.894-6.065 3.56-.694 2.656.898 5.371 3.56 6.065l24.125 6.284c2.743.694 5.389-.961 6.065-3.56.689-2.656-.904-5.376-3.56-6.065z"></path><path d="m504.774 119.044-24.125 6.279c-2.656.69-4.249 3.409-3.56 6.065.675 2.594 3.318 4.254 6.065 3.56l24.125-6.279c2.656-.69 4.249-3.409 3.56-6.065-.694-2.662-3.409-4.225-6.065-3.56z"></path><path d="m477.813 64.495c-1.928-1.957-5.075-1.976-7.032-.049l-17.749 17.501c-1.957 1.923-1.976 5.075-.049 7.032 1.919 1.948 5.065 1.985 7.032.049l17.749-17.501c1.957-1.928 1.977-5.075.049-7.032z"></path></g></g></svg>