<svg xmlns="http://www.w3.org/2000/svg" height="512" viewBox="0 0 48 48" width="512"><g fill="#ffe200" data-name="Car Rims"><path d="m5.26 28.45a19.37 19.37 0 0 1 0-8.6c.07-.32.57 0-3.51-1.49a23 23 0 0 0 .05 11.64c4.05-1.51 3.54-1.21 3.46-1.55z"></path><path d="m10.92 9.89a19.16 19.16 0 0 1 7.57-4.33l-.68-3.71a22.82 22.82 0 0 0 -9.95 5.78c3.32 2.79 2.81 2.48 3.06 2.26z"></path><path d="m37.09 9.89c.24.23-.26.52 3-2.26a22.67 22.67 0 0 0 -9.95-5.78l-.67 3.7a19.19 19.19 0 0 1 7.62 4.34z"></path><path d="m46.3 18.36c-4.09 1.45-3.58 1.17-3.51 1.49a19.37 19.37 0 0 1 0 8.6c-.09.34-.59 0 3.46 1.55a23 23 0 0 0 .05-11.64z"></path><path d="m36.85 38.34a19.29 19.29 0 0 1 -7.33 4.11l.67 3.7a22.7 22.7 0 0 0 9.67-5.51c-3.23-2.81-2.75-2.53-3.01-2.3z"></path><path d="m11.15 38.34c-.26-.23.22-.51-3 2.3a22.76 22.76 0 0 0 9.67 5.51l.67-3.71a18.92 18.92 0 0 1 -7.34-4.1z"></path><path d="m17.11 29.78a8.43 8.43 0 0 1 -1.6-2.78c-9.28 3.55-6.34 2.44-13.11 5a22.41 22.41 0 0 0 4.35 7.2c5.45-4.75 3.12-2.64 10.36-9.42z"></path><path d="m15.47 21.11a9 9 0 0 1 1.59-2.83c-7.4-6.59-5.06-4.54-10.56-9.18a22.55 22.55 0 0 0 -4.22 7.34z"></path><path d="m22.43 15.16a7.86 7.86 0 0 1 3.15 0c2-9.73 1.36-6.63 2.66-13.75a22.81 22.81 0 0 0 -8.48 0c1.3 7.1.7 4.01 2.67 13.75z"></path><path d="m30.93 18.28a8.63 8.63 0 0 1 1.6 2.83l13.19-4.67a22.55 22.55 0 0 0 -4.22-7.34c-5.5 4.64-3.15 2.59-10.57 9.18z"></path><path d="m32.5 27a8.78 8.78 0 0 1 -1.5 2.69c-.14.14 4.2 4.21 10.28 9.51a22.86 22.86 0 0 0 4.35-7.28c-.03-.11.66.32-13.13-4.92z"></path><path d="m30.64 21.78a7 7 0 1 0 -5.46 9.11 7 7 0 0 0 5.46-9.11zm-6.64 5.22a3 3 0 1 1 3-3 3 3 0 0 1 -3 3z"></path><path d="m25.57 32.84a7.86 7.86 0 0 1 -3.15 0c-2 9.73-1.36 6.63-2.66 13.75a22.81 22.81 0 0 0 8.48 0c-1.3-7.1-.7-4.01-2.67-13.75z"></path></g></svg>