<svg xmlns="http://www.w3.org/2000/svg" height="512" viewBox="0 0 512 512" width="512"><g fill="#ffe200"><g><path d="m350.433 209.012 2.005 1.925.481.32c-.802-.72-1.605-1.443-2.486-2.245zm0 0 2.005 1.925.481.32c-.802-.72-1.605-1.443-2.486-2.245z"></path><path d="m505.255 151.896-24.386-24.387 8.102-8.102c4.171-4.172 6.497-9.786 6.497-15.642 0-5.936-2.327-11.551-6.497-15.723l-65.058-65.058c-8.663-8.663-22.702-8.663-31.365 0l-8.102 8.102-24.387-24.387c-6.979-7.058-19.172-7.058-26.151 0-7.22 7.221-7.22 18.933 0 26.151l53.907 53.987-11.39 11.392-41.073-37.223c-9.546-8.663-24.306-7.942-32.969 1.605-8.664 9.547-7.942 24.306 1.604 32.97l39.387 35.697-12.914 12.916-41.073-37.303c-9.546-8.583-24.226-7.942-32.97 1.685-8.663 9.547-7.942 24.306 1.605 32.97l10.188 9.225-12.836 12.915-11.953-10.829c-9.385-8.503-24.146-8.022-32.97 1.684-8.663 9.547-7.942 24.226 1.605 32.89l10.267 9.306-12.915 12.915-11.953-10.829c-9.786-8.904-24.467-7.702-32.89 1.605-8.663 9.546-7.942 24.386 1.525 32.969l10.267 9.306-3.61 3.61-38.104-38.104c-7.219-7.22-19.011-7.22-26.231 0-3.61 3.609-5.375 8.343-5.375 13.075 0 4.734 1.765 9.466 5.375 13.077l24.386 24.386-8.022 8.102c-8.022 7.942-8.503 20.536-1.765 29.28-18.13 18.851-22.943 45.805-13.797 69.309l-32.088 32.088c-20.215-6.497-42.917-1.766-58.801 14.118-22.701 22.622-22.701 59.363 0 81.984 22.542 22.541 59.283 22.702 81.985 0 15.883-15.804 20.536-38.745 14.119-58.72l32.408-32.489c23.905 8.744 50.619 3.129 68.909-13.557 9.305 7.299 21.739 6.016 29.359-1.685l8.102-8.022 24.387 24.387c7.22 7.22 18.932 7.22 26.151 0 7.22-7.22 7.22-19.012 0-26.232l-38.104-38.104 8.182-8.182 11.872 10.829c4.493 4.011 10.108 6.016 15.723 6.016 6.338 0 12.675-2.567 17.247-7.62 8.663-9.546 7.942-24.307-1.604-32.97l-10.188-9.306 12.915-12.835 11.872 10.749c4.412 4.011 10.027 6.016 15.642 6.016 6.418 0 12.756-2.568 17.329-7.62 8.662-9.546 7.942-24.307-1.605-32.971l-10.188-9.224 12.514-12.515c.08-.161.161-.321.321-.481l11.953 10.829c9.466 8.664 24.307 7.942 32.971-1.604 8.663-9.547 7.942-24.307-1.605-32.971l-39.388-35.697 12.916-12.915 40.991 37.302c4.493 4.011 10.027 6.016 15.643 6.016 6.417 0 12.755-2.648 17.408-7.701 8.663-9.547 7.942-24.307-1.684-32.971l-39.308-35.697 9.627-9.546 53.907 53.907c7.22 7.219 18.932 7.219 26.151 0 7.22-7.216 7.3-18.929 0-26.148zm-435.829 310.929c-5.615 5.535-14.681 5.535-20.296 0-5.535-5.615-5.535-14.681 0-20.296 5.615-5.615 14.681-5.615 20.296 0s5.615 14.681 0 20.296zm39.708-39.708c-3.369-5.857-8.904-11.632-9.065-11.632-3.289-3.289-7.541-6.497-11.231-8.663l26.071-26.071c2.246 3.529 5.616 7.781 9.066 11.23 3.369 3.37 7.62 6.739 11.23 9.066zm127.468-44.442c-3.931 4.011-10.348 4.011-14.359 0-29.442-29.521-85.515-85.514-88.964-88.964-3.931-3.931-4.011-10.349 0-14.359l8.022-8.102 103.402 103.403zm58.639 7.139c2.568 2.568 2.568 6.659 0 9.226-2.486 2.486-6.578 2.486-9.144 0l-169.182-169.182c-2.486-2.568-2.486-6.659 0-9.145 1.284-1.284 2.969-1.925 4.573-1.925 1.684 0 3.369.641 4.652 1.925 0 0 57.999 57.999 169.101 169.101zm-113.99-130.997 4.011-4.011 79.658 72.197-7.782 7.702zm127.708 61.367c4.652 4.172 4.974 11.31.802 15.964-4.252 4.653-11.39 4.893-15.964.802-34.414-31.205-105.167-95.38-119.607-108.455-4.572-4.172-4.893-11.312-.722-15.964 4.172-4.653 11.39-4.975 15.963-.803 6.82 6.258 4.815 4.413 119.528 108.456zm-10.989-26.312-79.658-72.117 12.915-12.915 79.578 72.197zm56.955-19.653c4.652 4.172 4.974 11.39.802 15.964-4.252 4.733-11.471 4.893-15.964.802 0 0-21.338-19.413-119.606-108.456-4.653-4.171-4.975-11.311-.723-15.964 4.252-4.652 11.311-4.893 15.883-.802 116.8 105.969 111.025 100.675 119.608 108.456zm-10.99-26.232-79.657-72.197 12.914-12.915 79.578 72.197zm56.955-19.733c4.652 4.252 4.974 11.39.802 15.963-4.172 4.572-11.31 5.053-16.044.802-6.818-6.177-12.674-11.472-17.567-16.044-.321-.161-.562-.401-.803-.722-.64-.482-1.283-1.044-1.845-1.605-.161-.16-.32-.32-.561-.561-.24-.161-.481-.401-.722-.642-.401-.321-.963-.881-1.684-1.524-.241-.161-.482-.321-.642-.562-.562-.481-1.925-1.684-3.69-3.288-.241-.321-.482-.562-.803-.803-.401-.32-.721-.641-1.122-.962-.401-.401-.964-.883-1.123-1.044-.08-.08-.161-.161-.241-.161l-.24-.32c-.803-.641-1.444-1.284-2.166-1.845l-2.005-1.925c-.08 0-.161-.08-.241-.161-.883-.802-1.684-1.525-2.568-2.326-.321-.241-.561-.482-.802-.723-.24-.241-.401-.401-.641-.642-.562-.561-.964-.881-1.284-1.122l-.241-.241-.16-.08c-.401-.401-.723-.642-.964-.882-15.723-14.279-40.27-36.499-77.41-70.192-4.653-4.252-4.975-11.391-.803-15.963 4.252-4.652 11.311-5.054 15.964-.802 26.231 23.665 72.678 65.86 119.606 108.377zm-40.19-52.705c-.882-.722-19.814-17.889-21.339-19.252l12.916-12.916 21.257 19.333zm86.156 6.739c4.572 4.251 4.973 11.39.721 16.044-4.251 4.652-11.471 4.812-15.963.721l-119.606-108.375c-4.573-4.172-4.894-11.311-.723-15.964 4.011-4.492 11.152-5.213 15.964-.801 25.751 23.343 90.006 81.582 119.607 108.375zm-40.27-52.704c-8.504-7.701-22.141-20.055-21.259-19.253l10.991-10.99 20.296 20.296zm90.166 43.96c-2.407 2.487-6.659 2.487-9.146 0l-145.195-145.196c-2.487-2.567-2.568-6.658 0-9.145 2.567-2.568 6.658-2.568 9.144 0l145.197 145.197c2.567 2.486 2.567 6.576 0 9.144z"></path></g></g></svg>